<svg xmlns="http://www.w3.org/2000/svg" viewBox="0 0 140 120" role="img" aria-hidden="true">
  <defs>
    <linearGradient id="m-gold" x1="0%" y1="0%" x2="100%" y2="100%">
      <stop offset="0%" stop-color="#f7e08a"/>
      <stop offset="100%" stop-color="#9a7b2c"/>
    </linearGradient>
    <linearGradient id="m-red" x1="0%" y1="0%" x2="100%" y2="0%">
      <stop offset="0%" stop-color="#c0392b"/>
      <stop offset="100%" stop-color="#922b21"/>
    </linearGradient>
    <radialGradient id="m-globe" cx="40%" cy="35%" r="65%">
      <stop offset="0%" stop-color="#f4d03f"/>
      <stop offset="100%" stop-color="#7d6608"/>
    </radialGradient>
  </defs>
  <path fill="#0d0d0d" stroke="url(#m-gold)" stroke-width="3"
        d="M70 6 L118 6 L134 44 L96 112 L44 112 L6 44 L22 6 Z"/>
  <circle cx="70" cy="58" r="32" fill="url(#m-globe)"/>
  <ellipse cx="70" cy="58" rx="32" ry="12" fill="none" stroke="#5d4e0f" stroke-width="1.5" opacity="0.55"/>
  <ellipse cx="70" cy="58" rx="12" ry="32" fill="none" stroke="#5d4e0f" stroke-width="1.5" opacity="0.55"/>
  <path fill="url(#m-red)" d="M36 66 Q70 44 104 56 Q88 76 70 82 Q48 76 36 66Z" opacity="0.92"/>
  <path fill="url(#m-gold)" d="M42 60 Q70 42 98 52 Q84 70 70 76 Q52 70 42 60Z" opacity="0.88"/>
</svg>
